<svg version="1.1" id="Layer_1" xmlns="http://www.w3.org/2000/svg" xmlns:xlink="http://www.w3.org/1999/xlink" x="0px" y="0px"
	 width="100%" viewBox="0 0 774 774" enable-background="new 0 0 774 774" xml:space="preserve">
<path fill="#FCDB30" opacity="1.000000" stroke="none" 
	d="
M337.000000,775.000000 
	C224.666672,775.000000 112.833336,775.000000 1.000000,775.000000 
	C1.000000,517.000000 1.000000,259.000000 1.000000,1.000000 
	C259.000000,1.000000 517.000000,1.000000 775.000000,1.000000 
	C775.000000,259.000000 775.000000,517.000000 775.000000,775.000000 
	C629.166687,775.000000 483.333344,775.000000 337.000000,775.000000 
M407.500153,208.342773 
	C368.835785,208.345398 330.171387,208.323181 291.507050,208.361588 
	C273.367035,208.379593 263.231354,218.499054 263.217865,236.535858 
	C263.192291,270.700562 263.187683,304.865234 263.215118,339.029938 
	C263.220734,346.026337 263.080292,353.045471 263.569458,360.014648 
	C264.950562,379.691772 274.184021,396.350616 284.911560,412.154358 
	C312.696289,453.086487 348.094238,486.823059 386.068878,518.074768 
	C388.735809,520.269592 390.424042,519.237000 392.495087,517.419006 
	C405.139862,506.319733 418.172974,495.638397 430.441650,484.140198 
	C454.692963,461.411896 477.086761,437.004547 495.338928,409.044891 
	C507.112518,391.009430 515.346558,371.999939 515.111755,349.795868 
	C514.711731,311.968811 515.004028,274.134705 514.957031,236.303604 
	C514.934875,218.528168 504.837982,208.409042 486.995605,208.360428 
	C460.830658,208.289124 434.665344,208.341003 407.500153,208.342773 
M408.493164,556.166687 
	C408.078613,554.308899 407.343567,552.457581 407.306427,550.592224 
	C407.165222,543.500305 407.249512,536.403870 407.249512,527.859436 
	C401.957245,532.056152 397.530029,535.187378 393.568970,538.825989 
	C390.292725,541.835449 387.806274,541.566528 384.625641,538.746582 
	C380.611084,535.187256 376.210846,532.062988 370.839600,527.861328 
	C370.839600,535.873169 370.793640,542.314392 370.851471,548.754700 
	C370.920776,556.476135 370.959137,556.471680 363.480927,556.489563 
	C358.653595,556.501038 353.820892,556.385742 348.999908,556.570984 
	C330.562225,557.278992 316.340851,569.808228 313.694519,587.317078 
	C313.099884,591.251282 313.650452,593.042969 318.289551,593.028992 
	C365.565125,592.886780 412.841339,592.892456 460.117004,593.011841 
	C464.472290,593.022827 465.080383,591.321655 464.510681,587.588074 
	C461.815826,569.926758 447.532166,557.122192 429.448761,556.534790 
	C422.797729,556.318726 416.135284,556.455261 408.493164,556.166687 
M580.591003,325.317017 
	C585.757080,310.548035 585.716553,295.220764 585.551086,279.864410 
	C585.517761,276.763214 583.796021,276.399353 581.353027,276.404785 
	C566.859436,276.437012 552.365479,276.452026 537.872131,276.380859 
	C535.200684,276.367767 533.871460,277.172852 533.921631,280.074615 
	C534.039490,286.902283 534.057861,293.734711 533.935974,300.562012 
	C533.882507,303.558685 535.365662,304.228363 537.953674,304.168304 
	C542.282837,304.067871 546.616089,304.113892 550.947327,304.140411 
	C556.567810,304.174835 556.853394,304.555267 555.699280,310.251007 
	C553.468018,321.262695 549.065063,331.469147 541.248291,339.428772 
	C535.814331,344.962067 533.687500,350.747009 533.282288,358.249115 
	C532.850159,366.248474 530.943298,374.168182 529.671448,382.178101 
	C548.438354,377.117401 571.859924,351.121552 580.591003,325.317017 
M247.701309,376.271027 
	C246.574219,368.199677 245.657745,360.090179 244.207153,352.077393 
	C243.691055,349.226562 242.498550,346.014130 240.551712,343.988556 
	C231.157715,334.214569 225.193588,322.775085 222.186279,309.627411 
	C221.223343,305.417480 222.413330,303.831177 226.796661,304.083374 
	C231.277054,304.341095 235.790024,303.971771 240.283798,304.080627 
	C243.028107,304.147095 244.225861,303.177643 244.165268,300.336273 
	C244.023239,293.675812 243.939285,287.009247 244.070618,280.349884 
	C244.132553,277.210236 242.804688,276.363647 239.894363,276.381134 
	C225.569458,276.466980 211.243317,276.469818 196.918655,276.362030 
	C193.865540,276.339081 192.785614,277.497467 192.855591,280.473877 
	C193.000443,286.633514 192.648087,292.814148 192.995346,298.958160 
	C195.035690,335.058746 211.936005,362.078003 243.119583,380.227112 
	C244.835739,381.225861 246.786880,381.820801 249.383408,382.924561 
	C248.690033,380.211487 248.283127,378.619293 247.701309,376.271027 
z"/>
<path fill="#33322D" opacity="1.000000" stroke="none" 
	d="
M408.000183,208.341583 
	C434.665344,208.341003 460.830658,208.289124 486.995605,208.360428 
	C504.837982,208.409042 514.934875,218.528168 514.957031,236.303604 
	C515.004028,274.134705 514.711731,311.968811 515.111755,349.795868 
	C515.346558,371.999939 507.112518,391.009430 495.338928,409.044891 
	C477.086761,437.004547 454.692963,461.411896 430.441650,484.140198 
	C418.172974,495.638397 405.139862,506.319733 392.495087,517.419006 
	C390.424042,519.237000 388.735809,520.269592 386.068878,518.074768 
	C348.094238,486.823059 312.696289,453.086487 284.911560,412.154358 
	C274.184021,396.350616 264.950562,379.691772 263.569458,360.014648 
	C263.080292,353.045471 263.220734,346.026337 263.215118,339.029938 
	C263.187683,304.865234 263.192291,270.700562 263.217865,236.535858 
	C263.231354,218.499054 273.367035,208.379593 291.507050,208.361588 
	C330.171387,208.323181 368.835785,208.345398 408.000183,208.341583 
M338.843811,292.610199 
	C336.281311,288.739258 332.808411,286.810394 328.177002,288.175079 
	C324.069611,289.385254 322.526306,292.663330 322.515228,296.656525 
	C322.459778,316.652039 322.445221,336.647858 322.495544,356.643341 
	C322.504852,360.344177 324.195587,363.112610 328.058685,363.914734 
	C332.879791,364.915741 336.338165,361.769989 336.406860,355.967377 
	C336.546906,344.138336 336.430939,332.306335 336.455139,320.475647 
	C336.458496,318.843109 336.659637,317.210968 336.769226,315.578644 
	C339.009399,316.865845 340.108002,318.292511 341.114838,319.781219 
	C345.595306,326.406189 350.029358,333.062561 354.518341,339.681702 
	C360.042603,347.827332 365.745300,347.868225 371.159454,339.791473 
	C376.076477,332.456360 380.924011,325.074615 385.843658,317.741241 
	C386.597748,316.617126 387.575317,315.642914 388.449524,314.599396 
	C389.573944,316.575104 389.576050,318.158905 389.573608,319.742706 
	C389.555023,331.739868 389.491669,343.737213 389.535980,355.734161 
	C389.556274,361.232391 392.070496,364.117249 396.556335,364.133087 
	C401.058746,364.148987 403.768127,361.266632 403.900421,355.908112 
	C404.048431,349.912872 404.093872,343.906677 403.898560,337.914551 
	C403.782684,334.359985 404.812866,332.791565 408.669220,332.886536 
	C417.495270,333.103943 426.333099,333.072540 435.160828,332.887451 
	C439.019714,332.806580 440.610199,334.179932 440.488342,338.104370 
	C440.302246,344.096893 440.298248,350.104980 440.503021,356.096649 
	C440.680603,361.292450 443.698059,364.218140 448.169067,364.054565 
	C452.468323,363.897278 454.909760,361.157349 454.929810,355.891479 
	C455.005920,335.895905 455.014587,315.899689 454.941040,295.904144 
	C454.921692,290.643921 452.455200,287.858398 448.208923,287.671661 
	C443.715027,287.474030 440.782623,290.348145 440.601196,295.620453 
	C440.395020,301.612518 440.387665,307.618866 440.537018,313.612946 
	C440.630402,317.360168 439.374420,319.139252 435.370575,319.056976 
	C426.709045,318.879059 418.039856,318.863220 409.377808,319.013367 
	C405.163605,319.086395 403.827728,317.211914 403.975525,313.237274 
	C404.179749,307.746216 403.981934,302.241272 404.022125,296.742737 
	C404.050262,292.891479 402.763397,289.781921 398.984924,288.375122 
	C394.874817,286.844818 391.084076,287.579742 388.019562,290.878174 
	C387.119751,291.846649 386.407806,292.997375 385.661865,294.099823 
	C379.219116,303.621765 372.802979,313.161774 366.337830,322.668457 
	C365.380249,324.076477 364.207672,325.338318 362.580475,327.354279 
	C354.444702,315.445801 346.849457,304.328491 338.843811,292.610199 
z"/>
<path fill="#37342B" opacity="1.000000" stroke="none" 
	d="
M408.985596,556.298828 
	C416.135284,556.455261 422.797729,556.318726 429.448761,556.534790 
	C447.532166,557.122192 461.815826,569.926758 464.510681,587.588074 
	C465.080383,591.321655 464.472290,593.022827 460.117004,593.011841 
	C412.841339,592.892456 365.565125,592.886780 318.289551,593.028992 
	C313.650452,593.042969 313.099884,591.251282 313.694519,587.317078 
	C316.340851,569.808228 330.562225,557.278992 348.999908,556.570984 
	C353.820892,556.385742 358.653595,556.501038 363.480927,556.489563 
	C370.959137,556.471680 370.920776,556.476135 370.851471,548.754700 
	C370.793640,542.314392 370.839600,535.873169 370.839600,527.861328 
	C376.210846,532.062988 380.611084,535.187256 384.625641,538.746582 
	C387.806274,541.566528 390.292725,541.835449 393.568970,538.825989 
	C397.530029,535.187378 401.957245,532.056152 407.249512,527.859436 
	C407.249512,536.403870 407.165222,543.500305 407.306427,550.592224 
	C407.343567,552.457581 408.078613,554.308899 408.985596,556.298828 
z"/>
<path fill="#383629" opacity="1.000000" stroke="none" 
	d="
M580.464111,325.689392 
	C571.859924,351.121552 548.438354,377.117401 529.671448,382.178101 
	C530.943298,374.168182 532.850159,366.248474 533.282288,358.249115 
	C533.687500,350.747009 535.814331,344.962067 541.248291,339.428772 
	C549.065063,331.469147 553.468018,321.262695 555.699280,310.251007 
	C556.853394,304.555267 556.567810,304.174835 550.947327,304.140411 
	C546.616089,304.113892 542.282837,304.067871 537.953674,304.168304 
	C535.365662,304.228363 533.882507,303.558685 533.935974,300.562012 
	C534.057861,293.734711 534.039490,286.902283 533.921631,280.074615 
	C533.871460,277.172852 535.200684,276.367767 537.872131,276.380859 
	C552.365479,276.452026 566.859436,276.437012 581.353027,276.404785 
	C583.796021,276.399353 585.517761,276.763214 585.551086,279.864410 
	C585.716553,295.220764 585.757080,310.548035 580.464111,325.689392 
z"/>
<path fill="#38352A" opacity="1.000000" stroke="none" 
	d="
M247.788757,376.649078 
	C248.283127,378.619293 248.690033,380.211487 249.383408,382.924561 
	C246.786880,381.820801 244.835739,381.225861 243.119583,380.227112 
	C211.936005,362.078003 195.035690,335.058746 192.995346,298.958160 
	C192.648087,292.814148 193.000443,286.633514 192.855591,280.473877 
	C192.785614,277.497467 193.865540,276.339081 196.918655,276.362030 
	C211.243317,276.469818 225.569458,276.466980 239.894363,276.381134 
	C242.804688,276.363647 244.132553,277.210236 244.070618,280.349884 
	C243.939285,287.009247 244.023239,293.675812 244.165268,300.336273 
	C244.225861,303.177643 243.028107,304.147095 240.283798,304.080627 
	C235.790024,303.971771 231.277054,304.341095 226.796661,304.083374 
	C222.413330,303.831177 221.223343,305.417480 222.186279,309.627411 
	C225.193588,322.775085 231.157715,334.214569 240.551712,343.988556 
	C242.498550,346.014130 243.691055,349.226562 244.207153,352.077393 
	C245.657745,360.090179 246.574219,368.199677 247.788757,376.649078 
z"/>
<path fill="#F4D534" opacity="1.000000" stroke="none" 
	d="
M339.049011,292.910706 
	C346.849457,304.328491 354.444702,315.445801 362.580475,327.354279 
	C364.207672,325.338318 365.380249,324.076477 366.337830,322.668457 
	C372.802979,313.161774 379.219116,303.621765 385.661865,294.099823 
	C386.407806,292.997375 387.119751,291.846649 388.019562,290.878174 
	C391.084076,287.579742 394.874817,286.844818 398.984924,288.375122 
	C402.763397,289.781921 404.050262,292.891479 404.022125,296.742737 
	C403.981934,302.241272 404.179749,307.746216 403.975525,313.237274 
	C403.827728,317.211914 405.163605,319.086395 409.377808,319.013367 
	C418.039856,318.863220 426.709045,318.879059 435.370575,319.056976 
	C439.374420,319.139252 440.630402,317.360168 440.537018,313.612946 
	C440.387665,307.618866 440.395020,301.612518 440.601196,295.620453 
	C440.782623,290.348145 443.715027,287.474030 448.208923,287.671661 
	C452.455200,287.858398 454.921692,290.643921 454.941040,295.904144 
	C455.014587,315.899689 455.005920,335.895905 454.929810,355.891479 
	C454.909760,361.157349 452.468323,363.897278 448.169067,364.054565 
	C443.698059,364.218140 440.680603,361.292450 440.503021,356.096649 
	C440.298248,350.104980 440.302246,344.096893 440.488342,338.104370 
	C440.610199,334.179932 439.019714,332.806580 435.160828,332.887451 
	C426.333099,333.072540 417.495270,333.103943 408.669220,332.886536 
	C404.812866,332.791565 403.782684,334.359985 403.898560,337.914551 
	C404.093872,343.906677 404.048431,349.912872 403.900421,355.908112 
	C403.768127,361.266632 401.058746,364.148987 396.556335,364.133087 
	C392.070496,364.117249 389.556274,361.232391 389.535980,355.734161 
	C389.491669,343.737213 389.555023,331.739868 389.573608,319.742706 
	C389.576050,318.158905 389.573944,316.575104 388.449524,314.599396 
	C387.575317,315.642914 386.597748,316.617126 385.843658,317.741241 
	C380.924011,325.074615 376.076477,332.456360 371.159454,339.791473 
	C365.745300,347.868225 360.042603,347.827332 354.518341,339.681702 
	C350.029358,333.062561 345.595306,326.406189 341.114838,319.781219 
	C340.108002,318.292511 339.009399,316.865845 336.769226,315.578644 
	C336.659637,317.210968 336.458496,318.843109 336.455139,320.475647 
	C336.430939,332.306335 336.546906,344.138336 336.406860,355.967377 
	C336.338165,361.769989 332.879791,364.915741 328.058685,363.914734 
	C324.195587,363.112610 322.504852,360.344177 322.495544,356.643341 
	C322.445221,336.647858 322.459778,316.652039 322.515228,296.656525 
	C322.526306,292.663330 324.069611,289.385254 328.177002,288.175079 
	C332.808411,286.810394 336.281311,288.739258 339.049011,292.910706 
z"/>
</svg>